<?xml version="1.0" standalone="no"?><!DOCTYPE svg PUBLIC "-//W3C//DTD SVG 1.1//EN" "http://www.w3.org/Graphics/SVG/1.1/DTD/svg11.dtd"><svg class="icon" width="200px" height="200.00px" viewBox="0 0 1024 1024" version="1.1" xmlns="http://www.w3.org/2000/svg"><path d="M764.416 701.44c58.88-72.704 93.696-165.376 93.696-266.24 0-235.008-190.464-425.472-425.472-425.472s-425.472 190.464-425.472 425.472c0 235.008 190.464 425.472 425.472 425.472 116.224 0 221.696-46.592 298.496-122.368l247.296 274.432 36.864-33.28L764.416 701.44zM432.64 811.008c-207.872 0-375.808-168.448-375.808-375.808s170.496-375.808 375.808-375.808c207.872 0 375.808 168.448 375.808 375.808S640.512 811.008 432.64 811.008z" fill="#ffffff" /><path d="M457.728 249.856L408.064 249.856 408.064 410.624 247.296 410.624 247.296 459.776 408.064 459.776 408.064 620.544 457.728 620.544 457.728 459.776 618.496 459.776 618.496 410.624 457.728 410.624Z" fill="#ffffff" /></svg>
