<?xml version="1.0" standalone="no"?><!DOCTYPE svg PUBLIC "-//W3C//DTD SVG 1.1//EN" "http://www.w3.org/Graphics/SVG/1.1/DTD/svg11.dtd"><svg t="1571279232444" class="icon" viewBox="0 0 1024 1024" version="1.1" xmlns="http://www.w3.org/2000/svg" p-id="1748" xmlns:xlink="http://www.w3.org/1999/xlink" width="200" height="200"><defs><style type="text/css"></style></defs><path d="M878.878302 972.848065H601.612539c-11.514776 0-20.856163-9.339298-20.856163-20.856163v-206.808294H443.245714v206.808294c0 11.516865-9.337208 20.856163-20.854073 20.856163H145.123788c-11.516865 0-20.854073-9.339298-20.854074-20.856163V437.312784a20.854073 20.854073 0 0 1 10.102074-17.869845L501.25009 198.65809a20.868702 20.868702 0 0 1 21.508179 0L889.632392 419.442939a20.856163 20.856163 0 0 1 10.099984 17.869845v514.681208c0 11.514776-9.339298 20.854073-20.854074 20.854073z m-256.4096-41.710236h235.553437V449.103412L512.00209 240.869878 165.979951 449.103412v482.034417h235.555527v-206.808294c0-11.516865 9.337208-20.854073 20.854073-20.854074h179.220898c11.521045 0 20.856163 9.339298 20.856163 20.854074v206.808294z" p-id="1749"></path><path d="M1003.120849 388.430367a20.764212 20.764212 0 0 1-10.731102-2.990498L512.00209 96.345861 31.612343 385.439869c-9.870106 5.93711-22.684735 2.754351-28.621845-7.115755-5.9392-9.870106-2.754351-22.682645 7.115755-28.621845L501.248 54.136163a20.864522 20.864522 0 0 1 21.50609 0l491.141747 295.566106c9.870106 5.9392 13.054955 18.753829 7.115755 28.621845a20.849894 20.849894 0 0 1-17.890743 10.106253z" p-id="1750"></path></svg>