<?xml version="1.0" standalone="no"?><!DOCTYPE svg PUBLIC "-//W3C//DTD SVG 1.1//EN" "http://www.w3.org/Graphics/SVG/1.1/DTD/svg11.dtd"><svg t="1571279502058" class="icon" viewBox="0 0 1024 1024" version="1.1" xmlns="http://www.w3.org/2000/svg" p-id="1169" xmlns:xlink="http://www.w3.org/1999/xlink" width="200" height="200"><defs><style type="text/css"></style></defs><path d="M358.469 968.656m27.667 0l443.541 0q27.667 0 27.667 27.667l0 0.01q0 27.667-27.667 27.667l-443.541 0q-27.667 0-27.667-27.667l0-0.01q0-27.667 27.667-27.667Z" p-id="1170"></path><path d="M829.656 193.719m27.667 0l0.01 0q27.667 0 27.667 27.667l0 581.228q0 27.667-27.667 27.667l-0.01 0q-27.667 0-27.667-27.667l0-581.228q0-27.667 27.667-27.667Z" p-id="1171"></path><path d="M193.333 166.054c15.279 0 27.667 12.392 27.667 27.676v581.189c0 15.284-12.388 27.676-27.667 27.676-15.279 0-27.666-12.392-27.666-27.676V193.73c0-15.284 12.387-27.676 27.666-27.676z" p-id="1172"></path><path d="M247.812 0m27.667 0l388.198 0q27.667 0 27.667 27.667l0 0.01q0 27.667-27.667 27.667l-388.198 0q-27.667 0-27.667-27.667l0-0.01q0-27.667 27.667-27.667Z" p-id="1173"></path><path d="M608.17 747.244H441.63c-61.119 0-110.668-49.562-110.668-110.704V249.081c0-61.137 49.549-110.699 110.668-110.699h166.54c61.119 0 110.668 49.562 110.668 110.699V636.54c0 61.142-49.549 110.704-110.668 110.704z m55.28-470.486c0-45.858-37.16-83.028-83-83.028h-111.1c-45.838 0-83 37.17-83 83.028v332.105c0 45.858 37.162 83.028 83 83.028h111.1c45.84 0 83-37.17 83-83.028V276.758z" p-id="1174"></path><path d="M524.89 857.953m-55.765 0a55.765 55.765 0 1 0 111.53 0 55.765 55.765 0 1 0-111.53 0Z" p-id="1175"></path><path d="M220.188 885.623c0 45.855 37.161 83.03 83.001 83.03h248.974C526.925 1002.259 486.742 1024 441.479 1024H303.146c-76.4 0-138.334-61.934-138.334-138.333v-83.115c0-45.276 21.753-85.469 55.376-110.705v193.776zM829.666 317.499V138.382c0-45.86-37.16-83.028-83-83.028H567.608C598.004 21.385 642.173 0 691.344 0H719c91.679 0 166 74.321 166 166v27.781c0 49.161-21.377 93.323-55.334 123.718z" p-id="1176"></path><path d="M164.812 55.344h55.313v166.062h-55.313zM164.812 0h332v55.344h-332z" p-id="1177"></path></svg>