<?xml version="1.0" standalone="no"?><!DOCTYPE svg PUBLIC "-//W3C//DTD SVG 1.1//EN" "http://www.w3.org/Graphics/SVG/1.1/DTD/svg11.dtd"><svg t="1571376269478" class="icon" viewBox="0 0 1024 1024" version="1.1" xmlns="http://www.w3.org/2000/svg" p-id="9346" xmlns:xlink="http://www.w3.org/1999/xlink" width="200" height="200"><defs><style type="text/css"></style></defs><path d="M514.528 20.064c-266.4384 0-483.2 216.7616-483.2 483.2 0 266.4384 216.7616 483.2 483.2 483.2 266.432 0 483.2-216.7616 483.2-483.2C997.7216 236.8256 780.96 20.064 514.528 20.064zM514.528 954.464c-248.7936 0-451.2-202.4064-451.2-451.2 0-248.7936 202.4064-451.2 451.2-451.2 248.7936 0 451.2 202.4064 451.2 451.2C965.7216 752.0576 763.3152 954.464 514.528 954.464z" p-id="9347"></path><path d="M591.488 534.9824c-6.1696-6.1696-15.8528-13.0432-25.8752-14.8416 47.4176-61.1392 43.1104-149.6896-12.9984-205.8048-60.8256-60.8256-159.7952-60.8256-220.6144 0-60.8256 60.8256-60.8256 159.7952 0 220.6144 56.1088 56.1088 144.6592 60.416 205.8048 12.9984 1.7984 10.0224 8.672 19.7056 14.8416 25.8752l135.8848 152.5312c15.264 15.264 40.2368 15.264 55.4944 0s15.264-40.2368 0-55.4944L591.488 534.9824zM529.984 512.3264c-48.3456 48.3456-127.0144 48.3456-175.36 0s-48.3456-127.0144 0-175.36 127.0144-48.3456 175.36 0S578.336 463.9808 529.984 512.3264z" p-id="9348"></path><path d="M393.2672 343.3536c-5.4656 3.6096-10.6048 7.8016-15.264 12.4672-26.912 26.912-35.68 67.3472-22.3296 103.008 1.856 4.9664 7.392 7.4816 12.3584 5.6256 1.3312-0.4992 2.4768-1.2544 3.4176-2.1952 2.5792-2.5792 3.5648-6.5216 2.208-10.1632-10.72-28.6336-3.68-61.0944 17.9264-82.7008 3.7504-3.7504 7.8784-7.1168 12.2688-10.016 4.4032-2.9248 5.6384-8.8768 2.72-13.2992C403.648 341.6512 397.6896 340.4352 393.2672 343.3536z" p-id="9349"></path><path d="M313.6 172.8 614.4 172.8 313.6 172.8Z" p-id="9350"></path></svg>