<?xml version="1.0" standalone="no"?><!DOCTYPE svg PUBLIC "-//W3C//DTD SVG 1.1//EN" "http://www.w3.org/Graphics/SVG/1.1/DTD/svg11.dtd"><svg t="1571281298610" class="icon" viewBox="0 0 1024 1024" version="1.1" xmlns="http://www.w3.org/2000/svg" p-id="959" xmlns:xlink="http://www.w3.org/1999/xlink" width="200" height="200"><defs><style type="text/css"></style></defs><path d="M327.559529 664.576l125.530353-228.412235-52.796235-29.033412-125.500235 228.442353zM701.44 664.576l-125.470118-228.412235 52.766118-29.033412 125.530353 228.442353zM391.529412 813.176471h245.699764v-60.235295H391.529412z" p-id="960"></path><path d="M677.647059 90.955294A90.352941 90.352941 0 0 1 722.823529 169.261176v139.113412a90.352941 90.352941 0 0 1-45.17647 78.245647l-120.470588 69.571765a90.352941 90.352941 0 0 1-90.352942 0l-120.470588-69.571765a90.352941 90.352941 0 0 1-45.17647-78.245647v-139.143529a90.352941 90.352941 0 0 1 45.17647-78.21553l120.470588-69.571764a90.352941 90.352941 0 0 1 90.352942 0l120.470588 69.571764z m-180.705883-17.377882l-120.470588 69.571764a30.117647 30.117647 0 0 0-15.058823 26.081883v139.113412a30.117647 30.117647 0 0 0 15.058823 26.081882l120.470588 69.541647a30.117647 30.117647 0 0 0 30.117648 0l120.470588-69.571765a30.117647 30.117647 0 0 0 15.058823-26.051764v-139.14353a30.117647 30.117647 0 0 0-15.058823-26.051765l-120.470588-69.571764a30.117647 30.117647 0 0 0-30.117648 0zM256 563.531294l120.470588 69.571765a90.352941 90.352941 0 0 1 45.176471 78.245647v139.113412a90.352941 90.352941 0 0 1-45.176471 78.245647l-120.470588 69.571764a90.352941 90.352941 0 0 1-90.352941 0l-120.470588-69.571764A90.352941 90.352941 0 0 1 0 850.462118v-139.14353a90.352941 90.352941 0 0 1 45.176471-78.215529l120.470588-69.571765a90.352941 90.352941 0 0 1 90.352941 0z m-60.235294 52.163765l-120.470588 69.571765a30.117647 30.117647 0 0 0-15.058824 26.081882v139.113412a30.117647 30.117647 0 0 0 15.058824 26.081882l120.470588 69.541647a30.117647 30.117647 0 0 0 30.117647 0l120.470588-69.571765a30.117647 30.117647 0 0 0 15.058824-26.051764v-139.14353a30.117647 30.117647 0 0 0-15.058824-26.051764l-120.470588-69.571765a30.117647 30.117647 0 0 0-30.117647 0zM978.823529 633.072941A90.352941 90.352941 0 0 1 1024 711.378824v139.113411a90.352941 90.352941 0 0 1-45.176471 78.245647l-120.470588 69.571765a90.352941 90.352941 0 0 1-90.352941 0l-120.470588-69.571765a90.352941 90.352941 0 0 1-45.176471-78.245647v-139.143529a90.352941 90.352941 0 0 1 45.176471-78.21553l120.470588-69.571764a90.352941 90.352941 0 0 1 90.352941 0l120.470588 69.571764z m-180.705882-17.377882l-120.470588 69.571765a30.117647 30.117647 0 0 0-15.058824 26.081882v139.113412a30.117647 30.117647 0 0 0 15.058824 26.081882l120.470588 69.541647a30.117647 30.117647 0 0 0 30.117647 0l120.470588-69.571765a30.117647 30.117647 0 0 0 15.058824-26.051764v-139.14353a30.117647 30.117647 0 0 0-15.058824-26.051764l-120.470588-69.571765a30.117647 30.117647 0 0 0-30.117647 0z" p-id="961"></path></svg>