<svg t="1571895741242" class="icon" viewBox="0 0 1024 1024" version="1.1" xmlns="http://www.w3.org/2000/svg" p-id="2523" width="14" height="14"><path d="M512.2 704.1c-20.7 0-37.5 16.8-37.5 37.5s16.8 37.5 37.5 37.5 37.5-16.8 37.5-37.5-16.8-37.5-37.5-37.5z m37.5-387.5c0-20.7-16.8-37.5-37.5-37.5s-37.5 16.8-37.5 37.5v275c0 20.7 16.8 37.5 37.5 37.5s37.5-16.8 37.5-37.5v-275z m-37.5 612.5c-220.9 0-400-179.1-400-400s179.1-400 400-400 400 179.1 400 400-179.1 400-400 400z" p-id="2524" fill="#ffba00"></path></svg>
