<?xml version="1.0" standalone="no"?><!DOCTYPE svg PUBLIC "-//W3C//DTD SVG 1.1//EN" "http://www.w3.org/Graphics/SVG/1.1/DTD/svg11.dtd"><svg t="1571220277230" class="icon" viewBox="0 0 1024 1024" version="1.1" xmlns="http://www.w3.org/2000/svg" p-id="1111" xmlns:xlink="http://www.w3.org/1999/xlink" width="200" height="200"><defs><style type="text/css"></style></defs><path d="M853.528 0H170.472C134.864 0 105.89 28.972 105.89 64.582v894.836c0 35.61 28.972 64.582 64.582 64.582h683.054c35.61 0 64.582-28.972 64.582-64.582V64.582C918.11 28.972 889.136 0 853.528 0zM152.436 64.582c0-9.944 8.092-18.036 18.036-18.036H358.4v138.1H152.436V64.582z m719.128 894.836c0 9.944-8.092 18.036-18.036 18.036H170.472c-9.944 0-18.036-8.092-18.036-18.036V231.192h719.128v728.226z m0-774.772H404.946v-138.1h448.582c9.944 0 18.036 8.092 18.036 18.036v120.064z" p-id="1112"></path><path d="M512 286.604c-174.96 0-317.3 142.34-317.3 317.3s142.34 317.3 317.3 317.3 317.3-142.34 317.3-317.3-142.34-317.3-317.3-317.3z m0 588.054c-149.294 0-270.754-121.46-270.754-270.756S362.706 333.15 512 333.15s270.754 121.46 270.754 270.754S661.294 874.658 512 874.658z" p-id="1113"></path><path d="M725.688 512.764c-5.048-11.82-18.726-17.306-30.544-12.26-11.82 5.048-17.31 18.722-12.262 30.544 9.842 23.044 14.834 47.558 14.834 72.858 0 102.404-83.312 185.716-185.716 185.716s-185.716-83.312-185.716-185.716c0-102.392 83.312-185.694 185.716-185.694 34.816 0 68.748 9.684 98.124 28.004 10.904 6.8 25.258 3.474 32.062-7.434 6.8-10.906 3.474-25.26-7.434-32.062-36.774-22.93-79.22-35.054-122.754-35.054-128.07 0-232.262 104.182-232.262 232.238 0 128.07 104.192 232.262 232.262 232.262S744.26 731.974 744.26 603.904c0.002-31.618-6.25-62.284-18.572-91.14z" p-id="1114"></path><path d="M691.57 456.606c-0.556-0.678-1.114-1.35-1.678-2.02-8.268-9.842-22.946-11.122-32.788-2.854-9.842 8.266-11.12 22.948-2.854 32.79 0.452 0.536 0.898 1.072 1.342 1.614a23.23 23.23 0 0 0 18.002 8.508c5.194 0 10.424-1.732 14.752-5.286 9.936-8.152 11.378-22.818 3.224-32.752zM293.632 89.996h-75.66c-12.854 0-23.272 10.42-23.272 23.272s10.42 23.272 23.272 23.272h75.66c12.854 0 23.272-10.42 23.272-23.272s-10.418-23.272-23.272-23.272zM651.73 89.996h-13.266c-12.854 0-23.272 10.42-23.272 23.272s10.42 23.272 23.272 23.272h13.266c12.854 0 23.272-10.42 23.272-23.272s-10.418-23.272-23.272-23.272zM732.254 89.996h-13.242c-12.854 0-23.272 10.42-23.272 23.272s10.42 23.272 23.272 23.272h13.242c12.854 0 23.272-10.42 23.272-23.272s-10.42-23.272-23.272-23.272zM812.8 89.996h-13.266c-12.854 0-23.272 10.42-23.272 23.272s10.42 23.272 23.272 23.272h13.266c12.854 0 23.272-10.42 23.272-23.272s-10.418-23.272-23.272-23.272zM512 56.25c-31.44 0-57.018 25.578-57.018 57.018S480.562 170.286 512 170.286s57.018-25.58 57.018-57.018c0-31.438-25.578-57.018-57.018-57.018z m0 67.492a10.484 10.484 0 0 1-10.472-10.472c0-5.774 4.698-10.472 10.472-10.472s10.472 4.698 10.472 10.472A10.486 10.486 0 0 1 512 123.742z" p-id="1115"></path></svg>