<?xml version="1.0" standalone="no"?><!DOCTYPE svg PUBLIC "-//W3C//DTD SVG 1.1//EN" "http://www.w3.org/Graphics/SVG/1.1/DTD/svg11.dtd"><svg t="1571280740703" class="icon" viewBox="0 0 1024 1024" version="1.1" xmlns="http://www.w3.org/2000/svg" p-id="1015" xmlns:xlink="http://www.w3.org/1999/xlink" width="200" height="200"><defs><style type="text/css"></style></defs><path d="M924.378797 1024H98.413552c-53.72447 0-97.424838-33.389348-97.424838-87.969571v-23.709147c0-50.015542 36.300507-102.43439 82.644111-119.307513l211.347907-81.557424c16.841132-6.176215 35.465748 2.73321 41.534994 19.893249 6.067246 17.148043-2.706218 36.040582-19.588338 42.188805l-211.360903 81.562423c-20.739005 7.550817-39.630544 34.829932-39.630545 57.22046v23.709147c0 18.193741 14.566789 21.988644 32.477612 21.988644h825.965245c17.906824 0 32.473613-3.794903 32.473613-21.988644v-23.709147c0-22.390528-18.88854-49.669642-39.620547-57.209463l-232.028929-81.57342c-16.88312-6.148223-25.657583-25.040762-19.588338-42.188805 6.05525-17.16004 24.640877-26.063466 41.531994-19.893249l232.018932 81.557424c46.334606 16.873123 82.636113 69.29197 82.636113 119.307513v23.709147c0 54.580223-43.700368 87.969571-97.422838 87.969571zM501.06816 726.652952c-160.419629 0-290.463038-162.668978-290.463038-363.323977C210.605122 162.661981 340.648531 0 501.06816 0c160.419629 0 290.467037 162.661981 290.467037 363.328975 0 200.654998-130.047408 363.323977-290.467037 363.323977z m0-660.672025c-124.352054 0-225.513812 133.392441-225.513812 297.348048 0 163.954607 101.161758 297.34205 225.513812 297.34205s225.517811-133.387443 225.517811-297.34205C726.585971 199.373369 625.420214 65.980927 501.06816 65.980927z" p-id="1016"></path></svg>