<?xml version="1.0" standalone="no"?><!DOCTYPE svg PUBLIC "-//W3C//DTD SVG 1.1//EN" "http://www.w3.org/Graphics/SVG/1.1/DTD/svg11.dtd"><svg t="1571219923004" class="icon" viewBox="0 0 1024 1024" version="1.1" xmlns="http://www.w3.org/2000/svg" p-id="992" xmlns:xlink="http://www.w3.org/1999/xlink" width="200" height="200"><defs><style type="text/css"></style></defs><path d="M870.876 124.308H328.02a18.276 18.276 0 0 0-18.276 18.276 18.276 18.276 0 0 0 18.276 18.276h542.856c17.25 0 31.286 14.034 31.286 31.284v461.908c0 17.25-14.034 31.284-31.286 31.284h-101.732a18.276 18.276 0 0 0-18.276 18.276 18.276 18.276 0 0 0 18.276 18.276h101.732c37.406 0 67.838-30.43 67.838-67.836V192.144c0-37.406-30.432-67.836-67.838-67.836zM696.04 685.336H153.126c-17.25 0-31.286-14.034-31.286-31.284V192.144c0-17.25 14.036-31.284 31.286-31.284h101.788a18.276 18.276 0 0 0 18.276-18.276 18.276 18.276 0 0 0-18.276-18.276H153.126c-37.408 0-67.838 30.43-67.838 67.836v461.908c0 37.406 30.43 67.836 67.838 67.836H696.04a18.276 18.276 0 0 0 0-36.552z" p-id="993"></path><path d="M870.876 39.02H153.126C68.692 39.02 0 107.71 0 192.144v461.906c0 84.436 68.692 153.126 153.126 153.126h213.948v57.81h-44.304c-33.082 0-59.996 26.914-59.996 59.996s26.914 59.996 59.996 59.996h378.46c33.082 0 59.996-26.914 59.996-59.996s-26.914-59.996-59.996-59.996h-44.304v-57.81h213.95c84.434 0 153.124-68.692 153.124-153.126V192.144c0-84.434-68.692-153.124-153.124-153.124z m-169.646 862.52c12.928 0 23.444 10.518 23.444 23.444s-10.518 23.444-23.444 23.444h-378.46c-12.928 0-23.444-10.518-23.444-23.444s10.518-23.444 23.444-23.444h378.46z m-297.604-36.554v-57.81h216.748v57.81H403.626z m583.824-210.936c0 64.278-52.294 116.574-116.572 116.574H153.126c-64.28 0-116.574-52.294-116.574-116.574V192.144c0-64.278 52.294-116.572 116.574-116.572h717.75c64.278 0 116.572 52.294 116.572 116.572v461.906z" p-id="994"></path></svg>