<?xml version="1.0" standalone="no"?><!DOCTYPE svg PUBLIC "-//W3C//DTD SVG 1.1//EN" "http://www.w3.org/Graphics/SVG/1.1/DTD/svg11.dtd"><svg t="1571219748408" class="icon" viewBox="0 0 1024 1024" version="1.1" xmlns="http://www.w3.org/2000/svg" p-id="992" xmlns:xlink="http://www.w3.org/1999/xlink" width="200" height="200"><defs><style type="text/css"></style></defs><path d="M825.607944 721.392703c-10.597857-16.69789-88.273702-137.696054-154.662471-201.699411-55.388123-53.181728-138.291289-54.721281-147.689726-54.721281a34.541494 34.541494 0 0 0-2.55548 0.102935h-20.099229c-8.879285 0-88.439293 1.512701-146.629045 53.893324C282.176885 583.669796 202.737714 714.169333 197.17921 723.366375c-42.082621 66.536459-67.874618 109.809549-67.874617 157.920596 0 86.693869 63.520008 142.713029 161.823184 142.713029h441.775774c98.276324 0 161.77843-56.072866 161.77843-142.856244 0-48.536214-25.854653-91.746648-68.04916-158.22045a36.439083 36.439083 0 0 0-1.024877-1.530603z m-92.704393 235.475603H291.127777c-35.364976 0-94.691491-9.819129-94.691491-75.581335 0-28.101327 18.465691-60.369294 57.666125-122.331848l0.389364-0.626562c0.783203-1.297879 78.906593-130.441356 144.409223-189.472492 39.943358-35.955735 101.131659-36.640478 101.726893-36.644954h22.735267c0.639989 0 1.271027-0.017902 1.90654-0.053705 10.924564 0.411741 65.963602 4.05923 99.140085 35.91098 63.922799 61.635846 144.664324 189.521722 145.47438 190.806175 0.362511 0.577333 0.738449 1.136763 1.132288 1.682768 41.693257 65.780109 56.538312 94.064929 56.538312 120.577472-0.004475 62.593591-51.476583 75.733501-94.651212 75.733501zM349.970945 383.684481c75.764829 0 135.109246-84.277128 135.109246-191.86238C485.084666 84.259226 425.735774 0 349.970945 0 274.215066 0 214.870649 84.259226 214.870649 191.822101c0 107.589727 59.344417 191.86238 135.100296 191.86238z m0-316.552787c32.151606 0 67.977553 51.208056 67.977552 124.690407 0 73.504729-35.830423 124.730687-67.977552 124.730687S281.997867 265.32683 281.997867 191.822101C282.002343 118.339749 317.823814 67.131694 349.970945 67.131694zM173.038653 614.460866c13.207042 0 25.823325-2.716596 37.651929-8.145312 58.905823-27.389731 75.308334-113.349627 37.325222-195.715739-29.470813-63.78406-83.990699-106.636457-135.677628-106.636458-13.220468 0-25.854653 2.725547-37.598224 8.131886-58.986381 27.295747-75.442597 113.273544-37.450534 195.782871 29.470813 63.748256 84.022028 106.578277 135.740284 106.582752h0.008951z m-74.793657-134.706456c-22.717365-49.337319-16.268247-97.041101 4.623136-106.703589 2.85981-1.315781 5.952343-1.95577 9.465568-1.95577 21.079352 0 54.430377 23.710914 74.726526 67.637419 22.717365 49.265712 16.268247 96.973969-4.524676 106.640933-2.873236 1.315781-5.979196 1.960245-9.501372 1.960245-21.106204-0.004475-54.497509-23.706439-74.789182-67.579238zM673.961924 383.684481c75.737977 0 135.068967-84.277128 135.068967-191.86238C809.030891 84.259226 749.6999 0 673.961924 0c-75.809584 0-135.189804 84.259226-135.189805 191.822101 0 107.589727 59.380221 191.86238 135.189805 191.86238z m0-316.552787c32.133704 0 67.937274 51.208056 67.937274 124.690407 0 73.504729-35.80357 124.730687-67.937274 124.730687-32.187409 0-68.058111-51.225958-68.058111-124.730687 0-73.482352 35.870702-124.690408 68.058111-124.690407zM949.260048 312.104194c-11.712243-5.424241-24.377756-8.17664-37.642978-8.17664-51.610846 0-106.11283 42.865824-135.601546 106.636457-38.153179 82.330309-21.764095 168.321533 37.450534 195.827626 11.676439 5.357109 24.297198 8.073705 37.50424 8.073705 51.731683 0 106.269471-42.838971 135.713431-106.614081 38.023391-82.451146 21.576126-168.437894-37.423681-195.747067z m-23.531896 167.618888c-20.273771 43.913078-53.647174 67.606091-74.757854 67.606091-3.526652 0-6.632611-0.639989-9.367109-1.893114-21.016696-9.760948-27.483715-57.442352-4.667891-106.672261 20.336428-43.98021 53.651649-67.709026 74.681772-67.709026 3.495324 0 6.578906 0.639989 9.429765 1.960245 20.96299 9.711718 27.416584 57.411024 4.681317 106.708065z" p-id="993"></path></svg>