<?xml version="1.0" standalone="no"?><!DOCTYPE svg PUBLIC "-//W3C//DTD SVG 1.1//EN" "http://www.w3.org/Graphics/SVG/1.1/DTD/svg11.dtd"><svg t="1571278682577" class="icon" viewBox="0 0 1024 1024" version="1.1" xmlns="http://www.w3.org/2000/svg" p-id="1629" xmlns:xlink="http://www.w3.org/1999/xlink" width="200" height="200"><defs><style type="text/css"></style></defs><path d="M962.459202 493.686467H754.493159a61.16476 61.16476 0 0 0 5.288948-24.913731V96.292559c0-33.933757-27.607041-61.540798-61.540798-61.540798H325.761132c-33.933757 0-61.540798 27.607041-61.540797 61.540798v372.480177c0 8.866192 1.899724 17.290417 5.288948 24.913731h-207.968485C27.607041 493.686467 0 521.293508 0 555.227264v372.480177c0 33.933757 27.607041 61.540798 61.540798 61.540798h372.480177c33.933757 0 61.540798-27.607041 61.540797-61.540798V555.227264c0-8.866192-1.899724-17.290417-5.288948-24.913731h43.45191a61.16476 61.16476 0 0 0-5.288948 24.913731v372.480177c0 33.933757 27.607041 61.540798 61.540797 61.540798h372.480178c33.933757 0 61.540798-27.607041 61.540797-61.540798V555.227264c0.002442-33.933757-27.602158-61.540798-61.538356-61.540797z m-661.6118-24.913731V96.292559c0-13.737592 11.176139-24.913731 24.91373-24.913731h372.480177c13.737592 0 24.913731 11.176139 24.913731 24.913731v372.480177c0 13.737592-11.176139 24.913731-24.913731 24.913731H325.761132c-13.737592 0-24.913731-11.176139-24.91373-24.913731z m158.087304 86.454528v372.480177c0 13.737592-11.176139 24.913731-24.913731 24.913731H61.540798c-13.737592 0-24.913731-11.176139-24.913731-24.913731V555.227264c0-13.737592 11.176139-24.913731 24.913731-24.913731h372.480177c13.737592 0 24.913731 11.176139 24.913731 24.913731z m528.438227 372.480177c0 13.737592-11.176139 24.913731-24.913731 24.913731H589.979025c-13.737592 0-24.913731-11.176139-24.913731-24.913731V555.227264c0-13.737592 11.176139-24.913731 24.913731-24.913731h372.480177c13.737592 0 24.913731 11.176139 24.913731 24.913731v372.480177z" p-id="1630"></path><path d="M759.181423 600.642385l-105.7399 268.217569 34.075381 13.432366 24.520601-62.197643h128.363218l24.5206 62.200085 34.075382-13.432366-105.742342-268.217569H759.181423z m-32.703087 182.825225l49.741999-126.175361 49.741998 126.175361h-99.483997zM290.826236 729.313271c12.506922-14.853497 20.064307-34.007011 20.064307-54.901531 0-47.070664-38.297261-85.367926-85.367925-85.367926H151.147696v304.844636h107.898455c47.070664 0 85.367926-38.297261 85.367926-85.367926 0.002442-35.840806-22.213095-66.573357-53.587841-79.207253zM187.774763 625.670881h37.745413c26.876942 0 48.740859 21.866359 48.740859 48.740859 0 26.8745-21.863917 48.740859-48.740859 48.740858H187.774763v-97.481717z m71.27383 231.592944H187.774763v-97.481718H259.046151c26.876942 0 48.740859 21.866359 48.740859 48.740859s-21.861475 48.740859-48.738417 48.740859zM512.002442 434.953744c50.972668 0 92.439391-41.466723 92.439391-92.439391h-36.627067c0 30.776503-25.038263 55.812324-55.812324 55.812324s-55.812324-25.035821-55.812325-55.812324v-119.965853c0-30.776503 25.038263-55.812324 55.812325-55.812325s55.812324 25.038263 55.812324 55.812325h36.627067c0-50.972668-41.466723-92.439391-92.439391-92.439391s-92.439391 41.469165-92.439391 92.439391v119.965853c-0.002442 50.972668 41.466723 92.439391 92.439391 92.439391z" p-id="1631"></path></svg>