<?xml version="1.0" standalone="no"?><!DOCTYPE svg PUBLIC "-//W3C//DTD SVG 1.1//EN" "http://www.w3.org/Graphics/SVG/1.1/DTD/svg11.dtd"><svg t="1571280834338" class="icon" viewBox="0 0 1024 1024" version="1.1" xmlns="http://www.w3.org/2000/svg" p-id="1494" xmlns:xlink="http://www.w3.org/1999/xlink" width="200" height="200"><defs><style type="text/css"></style></defs><path d="M974 843.294l-180.783 20.079L753.043 1024 617.224 830.054c-33.636 8.634-68.893 13.227-105.224 13.227-40.142 0-78.973-5.608-115.756-16.078L270.957 1024l-40.174-160.627L50 843.294l136.485-153.48c-60.159-72.881-96.297-166.308-96.297-268.173C90.188 188.775 279.039 0 512 0s421.812 188.775 421.812 421.641c0 101.865-36.138 195.292-96.297 268.173L974 843.294z m-241.043 80.314l40.173-100.392 120.522-20.079-80.348-80.313-140.608 120.47 60.261 80.314zM130.348 803.137l120.522 20.079 40.173 100.392 60.261-80.314-140.608-120.47-80.348 80.313z m763.308-381.496c0-210.688-170.873-381.485-381.656-381.485-210.783 0-381.656 170.797-381.656 381.485 0 210.688 170.873 381.484 381.656 381.484 210.783 0 381.656-170.796 381.656-381.484z m-304.825 50.264l23.367 107.455a2.39 2.39 0 0 1-0.954 2.452 2.472 2.472 0 0 1-2.664 0.136L512 526.863l-96.58 55.085a2.479 2.479 0 0 1-2.664-0.136 2.39 2.39 0 0 1-0.954-2.452l23.368-107.455-83.058-73.408a2.385 2.385 0 0 1-0.692-2.537 2.436 2.436 0 0 1 2.074-1.65l111.022-11.326 45.248-100.454a2.45 2.45 0 0 1 2.236-1.432 2.45 2.45 0 0 1 2.236 1.432l45.248 100.454 111.022 11.326a2.436 2.436 0 0 1 2.074 1.65c0.299 0.906 0.028 1.9-0.692 2.537l-83.057 73.408z" p-id="1495"></path></svg>