<?xml version="1.0" standalone="no"?><!DOCTYPE svg PUBLIC "-//W3C//DTD SVG 1.1//EN" "http://www.w3.org/Graphics/SVG/1.1/DTD/svg11.dtd"><svg t="1571387756928" class="icon" viewBox="0 0 1024 1024" version="1.1" xmlns="http://www.w3.org/2000/svg" p-id="969" xmlns:xlink="http://www.w3.org/1999/xlink" width="200" height="200"><defs><style type="text/css"></style></defs><path d="M1009.371429 902.016522h-169.221225l59.910269-18.73084a38.648686 38.648686 0 0 0 22.889535-19.077747 38.640327 38.640327 0 0 0 2.672849-29.670923L702.355331 120.052506c-5.094922-16.346384-19.999347-27.328261-37.098058-27.328261-3.939265 0-7.853453 0.601861-11.619265 1.782596l-137.251526 42.882612c-1.316571 0.4096-2.591347 0.890253-3.830596 1.425241v-5.650808c0-21.447576-17.441437-38.897371-38.878564-38.897372h-144.697469a38.652865 38.652865 0 0 0-24.26462 8.555625 38.774073 38.774073 0 0 0-24.310596-8.555625H135.533714c-21.460114 0-38.922449 17.449796-38.922449 38.897372v768.852636H14.628571a14.628571 14.628571 0 1 0 0 29.257143h994.742858a14.628571 14.628571 0 1 0 0-29.257143z m-112.3328-51.392261a9.581714 9.581714 0 0 1-5.694694 4.733388l-137.236898 42.9056a9.508571 9.508571 0 0 1-2.858841 0.440947 9.759347 9.759347 0 0 1-9.232718-6.793927l-164.592327-526.762318 155.673078-48.623282 164.600685 526.739331a9.575445 9.575445 0 0 1-0.658285 7.360261zM724.371331 288.600816l-155.673078 48.623282-17.800882-56.967837 155.668898-48.631641 17.805062 56.976196z m-199.266221-123.28124l137.272425-42.888882a9.571265 9.571265 0 0 1 12.047673 6.338351l23.416163 74.931722-155.668898 48.631641-23.395265-74.877388c-1.586155-5.109551 1.251788-10.55138 6.327902-12.135444z m189.477617 736.696946h-202.028931v-646.373877l202.028931 646.373877zM319.356343 433.852082h163.94031v40.734302h-163.94031v-40.734302z m163.9424-29.257143h-163.94031v-143.174008h163.94031v143.174008z m-193.199543-104.328882H125.868408v-38.845126h164.230792v38.845126z m-164.230792 29.257143h164.230792v38.868114H125.868408v-38.868114z m193.487935 174.320327h163.94031V902.018612h-163.94031V503.843527z m9.62351-380.31987h144.697469a9.642318 9.642318 0 0 1 9.621421 9.640229v98.997812h-163.94031V133.165976a9.640229 9.640229 0 0 1 9.62142-9.642319z m-193.446139 0h144.868833c5.347788 0 9.696653 4.323788 9.696653 9.640229v98.997812H125.868408V133.165976c0-5.316441 4.338416-9.642318 9.665306-9.642319zM125.868408 397.648457h164.230792V902.018612H125.868408V397.648457z" p-id="970"></path></svg>